<svg width="60" height="60" viewBox="0 0 60 60" fill="none" xmlns="http://www.w3.org/2000/svg">
<path d="M29.9996 10.3052L27.3109 7.54143C20.9996 1.05393 9.42711 3.29268 5.24961 11.4489C3.28836 15.2852 2.84586 20.8239 6.42711 27.8927C9.87711 34.6989 17.0546 42.8514 29.9996 51.7314C42.9446 42.8514 50.1184 34.6989 53.5721 27.8927C57.1534 20.8202 56.7146 15.2852 54.7496 11.4489C50.5721 3.29268 38.9996 1.05018 32.6884 7.53768L29.9996 10.3052ZM29.9996 56.2502C-27.4991 18.2552 12.2959 -11.3998 29.3396 4.28643C29.5646 4.49268 29.7859 4.70643 29.9996 4.92768C30.2112 4.70663 30.4314 4.49397 30.6596 4.29018C47.6996 -11.4073 87.4984 18.2514 29.9996 56.2502Z" fill="white"/>
</svg>
