<svg width="40" height="41" viewBox="0 0 40 41" fill="none" xmlns="http://www.w3.org/2000/svg">
<g clip-path="url(#clip0_2_28)">
<path d="M40 20.7507C40 9.63567 31.045 0.625671 20 0.625671C8.95 0.628171 -0.00499725 9.63567 -0.00499725 20.7532C-0.00499725 30.7957 7.31 39.1207 16.87 40.6307V26.5682H11.795V20.7532H16.875V16.3157C16.875 11.2732 19.8625 8.48817 24.43 8.48817C26.62 8.48817 28.9075 8.88067 28.9075 8.88067V13.8307H26.385C23.9025 13.8307 23.1275 15.3832 23.1275 16.9757V20.7507H28.6725L27.7875 26.5657H23.125V40.6282C32.685 39.1182 40 30.7932 40 20.7507Z" fill="black"/>
</g>
<defs>
<clipPath id="clip0_2_28">
<rect width="40" height="40" fill="white" transform="translate(0 0.628174)"/>
</clipPath>
</defs>
</svg>
