<svg width="40" height="41" viewBox="0 0 40 41" fill="none" xmlns="http://www.w3.org/2000/svg">
<g clip-path="url(#clip0_2_30)">
<path d="M20 0.628174C14.5725 0.628174 13.89 0.653174 11.7575 0.748174C9.625 0.848174 8.1725 1.18317 6.9 1.67817C5.56523 2.18022 4.35623 2.96774 3.3575 3.98567C2.34019 4.98491 1.55277 6.19377 1.05 7.52817C0.555 8.79817 0.2175 10.2532 0.12 12.3782C0.025 14.5157 0 15.1957 0 20.6307C0 26.0607 0.025 26.7407 0.12 28.8732C0.22 31.0032 0.555 32.4557 1.05 33.7282C1.5625 35.0432 2.245 36.1582 3.3575 37.2707C4.4675 38.3832 5.5825 39.0682 6.8975 39.5782C8.1725 40.0732 9.6225 40.4107 11.7525 40.5082C13.8875 40.6032 14.5675 40.6282 20 40.6282C25.4325 40.6282 26.11 40.6032 28.245 40.5082C30.3725 40.4082 31.83 40.0732 33.1025 39.5782C34.4364 39.0759 35.6445 38.2884 36.6425 37.2707C37.755 36.1582 38.4375 35.0432 38.95 33.7282C39.4425 32.4557 39.78 31.0032 39.88 28.8732C39.975 26.7407 40 26.0607 40 20.6282C40 15.1957 39.975 14.5157 39.88 12.3807C39.78 10.2532 39.4425 8.79817 38.95 7.52817C38.4473 6.19374 37.6599 4.98486 36.6425 3.98567C35.6441 2.96736 34.435 2.17979 33.1 1.67817C31.825 1.18317 30.37 0.845674 28.2425 0.748174C26.1075 0.653174 25.43 0.628174 19.995 0.628174H20.0025H20ZM18.2075 4.23317H20.0025C25.3425 4.23317 25.975 4.25067 28.0825 4.34817C30.0325 4.43567 31.0925 4.76317 31.7975 5.03567C32.73 5.39817 33.3975 5.83317 34.0975 6.53317C34.7975 7.23317 35.23 7.89817 35.5925 8.83317C35.8675 9.53567 36.1925 10.5957 36.28 12.5457C36.3775 14.6532 36.3975 15.2857 36.3975 20.6232C36.3975 25.9607 36.3775 26.5957 36.28 28.7032C36.1925 30.6532 35.865 31.7107 35.5925 32.4157C35.2719 33.2841 34.7601 34.0693 34.095 34.7132C33.395 35.4132 32.73 35.8457 31.795 36.2082C31.095 36.4832 30.035 36.8082 28.0825 36.8982C25.975 36.9932 25.3425 37.0157 20.0025 37.0157C14.6625 37.0157 14.0275 36.9932 11.92 36.8982C9.97 36.8082 8.9125 36.4832 8.2075 36.2082C7.33875 35.888 6.55281 35.3771 5.9075 34.7132C5.24188 34.0683 4.72931 33.2823 4.4075 32.4132C4.135 31.7107 3.8075 30.6507 3.72 28.7007C3.625 26.5932 3.605 25.9607 3.605 20.6182C3.605 15.2782 3.625 14.6482 3.72 12.5407C3.81 10.5907 4.135 9.53067 4.41 8.82567C4.7725 7.89317 5.2075 7.22567 5.9075 6.52567C6.6075 5.82567 7.2725 5.39317 8.2075 5.03067C8.9125 4.75567 9.97 4.43067 11.92 4.34067C13.765 4.25567 14.48 4.23067 18.2075 4.22817V4.23317ZM30.6775 7.55317C30.3623 7.55317 30.0502 7.61525 29.7591 7.73586C29.4679 7.85647 29.2033 8.03326 28.9804 8.25612C28.7576 8.47898 28.5808 8.74355 28.4602 9.03473C28.3396 9.32592 28.2775 9.638 28.2775 9.95317C28.2775 10.2683 28.3396 10.5804 28.4602 10.8716C28.5808 11.1628 28.7576 11.4274 28.9804 11.6502C29.2033 11.8731 29.4679 12.0499 29.7591 12.1705C30.0502 12.2911 30.3623 12.3532 30.6775 12.3532C31.314 12.3532 31.9245 12.1003 32.3746 11.6502C32.8246 11.2001 33.0775 10.5897 33.0775 9.95317C33.0775 9.31665 32.8246 8.7062 32.3746 8.25612C31.9245 7.80603 31.314 7.55317 30.6775 7.55317ZM20.0025 10.3582C18.6402 10.3369 17.2872 10.5869 16.0224 11.0935C14.7577 11.6002 13.6063 12.3534 12.6354 13.3092C11.6645 14.2651 10.8934 15.4046 10.3671 16.6613C9.8408 17.9181 9.56975 19.2669 9.56975 20.6294C9.56975 21.9919 9.8408 23.3408 10.3671 24.5975C10.8934 25.8543 11.6645 26.9937 12.6354 27.9496C13.6063 28.9055 14.7577 29.6587 16.0224 30.1653C17.2872 30.672 18.6402 30.9219 20.0025 30.9007C22.6989 30.8586 25.2705 29.758 27.1624 27.8363C29.0544 25.9146 30.1148 23.3261 30.1147 20.6294C30.1148 17.9327 29.0544 15.3442 27.1624 13.4225C25.2705 11.5009 22.6989 10.4002 20.0025 10.3582ZM20.0025 13.9607C21.7708 13.9607 23.4667 14.6631 24.7171 15.9135C25.9675 17.1639 26.67 18.8598 26.67 20.6282C26.67 22.3965 25.9675 24.0924 24.7171 25.3428C23.4667 26.5932 21.7708 27.2957 20.0025 27.2957C18.2342 27.2957 16.5383 26.5932 15.2879 25.3428C14.0375 24.0924 13.335 22.3965 13.335 20.6282C13.335 18.8598 14.0375 17.1639 15.2879 15.9135C16.5383 14.6631 18.2342 13.9607 20.0025 13.9607Z" fill="black"/>
</g>
<defs>
<clipPath id="clip0_2_30">
<rect width="40" height="40" fill="white" transform="translate(0 0.628174)"/>
</clipPath>
</defs>
</svg>
