<svg width="40" height="41" viewBox="0 0 40 41" fill="none" xmlns="http://www.w3.org/2000/svg">
<path d="M12.565 38.1282C27.66 38.1282 35.9175 25.6207 35.9175 14.7932C35.9175 14.4432 35.9175 14.0882 35.9025 13.7382C37.5101 12.5744 38.8977 11.1336 40 9.4832C38.4983 10.1453 36.9069 10.5817 35.2775 10.7782C36.9938 9.75229 38.2793 8.13812 38.895 6.2357C37.2825 7.19101 35.5175 7.86163 33.6775 8.2182C32.4405 6.90076 30.8035 6.02799 29.0202 5.73509C27.2369 5.44219 25.4068 5.7455 23.8133 6.59804C22.2199 7.45058 20.952 8.80477 20.2061 10.4508C19.4602 12.0969 19.2779 13.943 19.6875 15.7032C16.4244 15.5396 13.232 14.6919 10.3176 13.2151C7.40317 11.7382 4.83171 9.66531 2.77 7.1307C1.72335 8.93841 1.40393 11.0767 1.87662 13.1114C2.3493 15.146 3.57864 16.9245 5.315 18.0857C4.01385 18.0415 2.7413 17.6921 1.6 17.0657V17.1782C1.60224 19.0719 2.25827 20.9067 3.45718 22.3726C4.6561 23.8384 6.32437 24.8454 8.18 25.2232C7.47566 25.4172 6.74807 25.514 6.0175 25.5107C5.50246 25.5123 4.98845 25.4645 4.4825 25.3682C5.00697 26.9983 6.02818 28.4236 7.40312 29.4444C8.77805 30.4652 10.4378 31.0303 12.15 31.0607C9.24139 33.3452 5.6485 34.5842 1.95 34.5782C1.2983 34.5809 0.647058 34.5434 0 34.4657C3.75379 36.8589 8.11324 38.1296 12.565 38.1282Z" fill="black"/>
</svg>
